<?xml version="1.0" encoding="utf-8"?>
<!-- Generator: Adobe Illustrator 19.0.0, SVG Export Plug-In . SVG Version: 6.00 Build 0)  -->
<svg version="1.1" id="Layer_1" xmlns="http://www.w3.org/2000/svg" xmlns:xlink="http://www.w3.org/1999/xlink" x="0px" y="0px"
	 viewBox="24 187.1 360.2 429.6" style="enable-background:new 24 187.1 360.2 429.6;" xml:space="preserve">
<style type="text/css">
	.st0{fill:#FFFFFF;}
	.st1{fill:#000066;}
	.st2{fill:#990000;}
</style>
<path class="st0" d="M384,187.1H24v130.7l0.7,66.8c0,18.4,2,36.3,5.8,53.4c3.6,15.9,8.9,31.3,15.8,45.9c12,25.5,29,48.9,50.4,69.5
	c9,8.6,18.8,16.8,29.2,24.3c9.1,6.5,18.6,12.6,28.4,18.1c22.2,12.3,39,17.8,45.2,19.6l4.6,1.3l4.6-1.3c6.2-1.8,23-7.3,45.2-19.6
	c9.8-5.4,19.3-11.5,28.4-18.1c10.4-7.5,20.2-15.7,29.2-24.3c21.4-20.6,38.4-44,50.4-69.5c6.9-14.6,12.2-30.1,15.8-45.9
	c3.9-17.1,5.8-35,5.8-53.4l0.7-66.8V187.1H384z"/>
<path class="st1" d="M28.2,321.9l0.7,62.6c0,18.1,1.9,35.7,5.7,52.5c3.5,15.6,8.7,30.8,15.5,45.1c11.8,25,28.4,48,49.5,68.2
	c8.8,8.5,18.5,16.5,28.7,23.9c8.9,6.5,18.3,12.4,28,17.8c21.8,12.1,38.2,17.5,44.3,19.2l3.5,1l3.5-1c6.1-1.7,22.5-7.1,44.3-19.2
	c9.6-5.4,19-11.3,28-17.8c10.2-7.4,19.9-15.4,28.7-23.9c21.1-20.3,37.7-43.2,49.5-68.2c6.7-14.3,11.9-29.5,15.5-45.1
	c3.8-16.8,5.7-34.4,5.7-52.5l0.7-62.6L28.2,321.9L28.2,321.9z M372.9,384.5c0,17.6-1.9,34.8-5.6,51.2c-3.4,15.1-8.5,29.9-15,43.8
	c-11.5,24.3-27.7,46.7-48.2,66.4c-8.6,8.3-18.1,16.2-28,23.4c-8.7,6.3-17.9,12.2-27.3,17.4c-21.2,11.8-37.1,17-43,18.7l-1.8,0.5
	l-1.8-0.5c-5.9-1.7-21.8-6.9-43-18.7c-9.4-5.2-18.6-11.1-27.3-17.4c-10-7.2-19.4-15.1-28-23.4c-20.5-19.7-36.7-42.1-48.2-66.4
	c-6.6-13.9-11.6-28.6-15-43.8c-3.7-16.3-5.6-33.6-5.6-51.2l-0.6-56.3h338.9L372.9,384.5z"/>
<path class="st1" d="M45.6,434.1c3.3,14.8,8.3,29.2,14.6,42.8c11.2,23.8,27,45.6,47,64.9c8.4,8.1,17.6,15.8,27.4,22.9
	c8.5,6.2,17.5,11.9,26.7,17.1c20.7,11.6,36.2,16.6,41.8,18.3l0.9,0.2l0.9-0.2c5.7-1.6,21.1-6.7,41.8-18.3
	c9.2-5.1,18.2-10.9,26.7-17.1c9.7-7.1,19-14.8,27.4-22.9c20-19.3,35.8-41.1,47-64.9c6.4-13.6,11.3-28,14.6-42.8
	c3.6-16,5.4-32.8,5.4-50.1l0.5-52.7H39.6l0.5,52.7C40.1,401.3,42,418.2,45.6,434.1z M365.2,334.5l-0.5,49.6
	c0,141.8-122.6,202.1-160.7,213.1c-38.1-11-160.7-71.2-160.7-213.1l-0.5-49.6H365.2z"/>
<rect x="28.2" y="305.8" class="st1" width="351.7" height="8.9"/>
<rect x="28.2" y="191.2" class="st1" width="351.7" height="26.4"/>
<g>
	<path class="st1" d="M81.9,261c0.2-6.6,0.2-8.5,7.6-9.5v-1H68.9v1c7.4,1,7.4,2.9,7.6,9.5v22.5c-0.2,6.6-0.2,8.5-7.6,9.5v1h20.6v-1
		c-7.4-1-7.4-2.9-7.6-9.5V261z"/>
	<path class="st1" d="M262.9,249.7c-13.5,0-23.5,8.9-23.5,22.5c0,13.9,10,22.7,23.6,22.7c13.5,0,23.6-8.8,23.6-22.6
		C286.6,260.8,279.4,249.7,262.9,249.7z M262.4,251.2c9.8,0,16.5,10.8,16.7,22.1c0,9.2-4.7,20-15.3,20c-11.6,0-16.9-12.7-16.9-22.7
		C246.9,262,251.4,251.2,262.4,251.2z"/>
	<path class="st1" d="M295,250.4h-10.6v1c8.2,1.8,9.2,4.3,9.2,10.7v9.6c0,14.6,0.3,20.5-8.4,21.4v1h19.2v-1
		c-9.3-1.9-8.9-5.1-8.9-21.1v-11.8c10.9,11.7,22.3,22.9,32.6,35l0.8-0.2c-0.3-14-0.6-29.5,0.3-36.5c0.5-4.2,1.4-6.6,5.8-7.2v-1
		h-17.6v1c7.3,1.3,8.9,3.1,9,9.2l0.3,23.4L295,250.4z"/>
	<path class="st1" d="M128,253.1c-4.2-2.5-9.2-3.5-14.1-3.5c-17,0-25.9,11.6-25.9,23c0,14.5,12,22.2,25.4,22.2c4.6,0,9-0.8,13.1-2.8
		c1.5-3.7,2.8-7.6,3.5-11.5l-0.9-0.4c-2.9,6.9-6.2,13.1-14.7,13.1c-9.3,0-19-8.8-19-21.4c0-11,6.6-20.7,18.4-20.7
		c7.7,0,12,5.2,13.2,12.5h1V253.1z"/>
	<path class="st1" d="M143.5,273h25.9v10.6c0,7.1-0.1,8.3-8.6,9.6v1H183v-1c-7.7-1-7.8-3-8-9.6V261c0.2-6.6,0.3-8.5,8-9.6v-1h-22.2
		v1c8.4,1.2,8.6,2.5,8.6,9.6v9.3h-25.9V261c0-7.1,0.1-8.3,8.6-9.6v-1h-22.2v1c7.7,1,7.8,3,8,9.6v22.6c-0.2,6.6-0.3,8.5-8,9.6v1h22.2
		v-1c-8.4-1.2-8.6-2.5-8.6-9.6L143.5,273L143.5,273z"/>
	<path class="st1" d="M200.4,257.5c-0.5-1-2.2-4.9-0.8-6.4l-0.1-0.7h-13.9v1c3.8,0.3,7.5,1.8,7.1,6l-0.8,8.7l-2.4,18
		c-0.9,5.2-1.5,8-7.2,8.9v1h18v-1c-7.8-1.3-7.9-4.2-7.7-6.7c0.5-9.9,1-17.1,2-26.9h0.1l15.3,34.5h0.7l16.4-36h0.1l1.7,28
		c0.3,5.6-2.8,6.2-7.8,7v1h21.2v-1c-6.9-1.2-6.9-2.6-7.6-11.5l-1.4-23.4c-0.3-4.5,2.3-6,6.4-6.9v-1h-14.2l-0.1,1
		c1.4,1,0.5,4.2-1.1,7.7l-11.7,25.5L200.4,257.5z"/>
	<path class="st1" d="M41.7,250.7c6.7-0.1,13.3,3,13.3,10.7c0,7.3-7.2,10.1-13.3,10.2V250.7z M36.1,283.3c-0.2,6.7-0.3,8.7-7.9,9.8
		v1h22.4v-1c-8.8-1.2-8.9-2.6-8.9-9.8v-10.5c4.5,0.8,6.8-0.8,9.3,4.6c1.3,2.8,4.7,8.6,8.9,13.1c3.7,3.9,6,3.6,15.8,3.6l-0.1-0.5
		c-10.4-2.3-16.8-13.4-21.7-22.3l-0.3-0.5c4.6-2.1,7.9-5.2,7.9-10.7c0-3.1-1.3-11.2-17.4-10.7l-15.6,0.5v0.9
		c7.2,0.7,7.5,2.2,7.5,12.2L36.1,283.3L36.1,283.3z"/>
	<path class="st1" d="M333.5,251.5c7.3,1,7.4,3.2,7.5,9.8v22.3c-0.2,6.6-0.3,8.5-8,9.6v1l19.2,0.1c22.1,0.2,28.1-12.6,28.1-21.8
		c0-6.7-3-23-31.3-22.1l-15.5,0.3L333.5,251.5L333.5,251.5z M370.9,263.7c3.4,6.7,1.9,15.9-1.6,22c-4.7,5.6-11.6,8-18.5,5.8
		c-2.2-0.8-3.2-2.9-3.5-5v-34.4C356.6,252.4,366.1,254.9,370.9,263.7z"/>
</g>
<g>
	<rect x="235.5" y="465.6" class="st2" width="63" height="63"/>
	<rect x="235.5" y="339.7" class="st2" width="63" height="63"/>
	<rect x="109.5" y="339.7" class="st2" width="63" height="63"/>
	<rect x="109.5" y="465.6" class="st2" width="63" height="63"/>
	<rect x="172.5" y="402.7" class="st2" width="63" height="63"/>
	<path class="st2" d="M172.5,528.6v49.8c14.8,7.7,26,11.6,31.5,13.2c5.5-1.7,16.7-5.6,31.5-13.2v-49.8H172.5z"/>
	<path class="st2" d="M358.8,402.7h-60.3v63h45.2c4.5-10.7,8-21.9,10.6-33.3C356.5,422.7,357.9,412.8,358.8,402.7z"/>
	<path class="st2" d="M109.5,402.7H49.2c0.8,10.1,2.3,20.1,4.5,29.7c2.6,11.4,6.1,22.6,10.6,33.3h45.2V402.7z"/>
</g>
<rect x="28.2" y="226.1" class="st1" width="351.3" height="8.9"/>
</svg>
